<?xml version="1.0" standalone="no"?><!DOCTYPE svg PUBLIC "-//W3C//DTD SVG 1.1//EN" "http://www.w3.org/Graphics/SVG/1.1/DTD/svg11.dtd"><svg t="1701952995930" class="icon" viewBox="0 0 1024 1024" version="1.1" xmlns="http://www.w3.org/2000/svg" p-id="1009" xmlns:xlink="http://www.w3.org/1999/xlink" width="200" height="200"><path d="M0 0h1024v1024H0z" fill="#FFFFF5" p-id="1010"></path><path d="M213.333333 283.306667l43.946667-12.586667c68.906667-19.626667 141.866667-19.626667 210.773333 0l43.946667 12.586667 43.946667-12.586667c68.906667-19.626667 141.866667-19.626667 210.773333 0l43.946667 12.586667v426.666666l-43.946667-12.586666c-68.906667-19.626667-141.866667-19.626667-210.773333 0l-43.946667 12.586666-43.946667-12.586666c-68.906667-19.626667-141.866667-19.626667-210.773333 0l-43.946667 12.586666z" fill="#FFBC47" p-id="1011"></path><path d="M294.933333 418.56a14.933333 14.933333 0 0 1-13.312-26.730667c29.418667-14.634667 63.402667-19.050667 101.930667-13.269333 18.88 2.837333 35.114667 7.146667 48.661333 12.906667a14.933333 14.933333 0 1 1-11.690666 27.477333 127.765333 127.765333 0 0 0-10.986667-3.84 202.624 202.624 0 0 0-30.421333-6.997333c-32.32-4.864-60.373333-1.365333-84.181334 10.453333zM294.933333 503.893333a14.933333 14.933333 0 0 1-13.312-26.730666c29.418667-14.634667 63.402667-19.050667 101.930667-13.269334 18.88 2.837333 35.114667 7.146667 48.661333 12.906667a14.933333 14.933333 0 1 1-11.690666 27.477333 127.765333 127.765333 0 0 0-10.986667-3.84 202.624 202.624 0 0 0-30.421333-6.997333c-32.32-4.864-60.373333-1.365333-84.181334 10.453333zM294.933333 589.226667a14.933333 14.933333 0 0 1-13.312-26.730667c29.418667-14.634667 63.402667-19.050667 101.930667-13.269333 18.88 2.837333 35.114667 7.146667 48.661333 12.906666a14.933333 14.933333 0 1 1-11.690666 27.477334 127.765333 127.765333 0 0 0-10.986667-3.84 202.624 202.624 0 0 0-30.421333-6.997334c-32.32-4.864-60.373333-1.365333-84.181334 10.453334z" fill="#2E2E38" p-id="1012"></path><path d="M604.266667 418.56a14.933333 14.933333 0 0 1-13.312-26.730667c29.418667-14.634667 63.402667-19.050667 101.930666-13.269333 18.88 2.837333 35.114667 7.146667 48.661334 12.906667a14.933333 14.933333 0 1 1-11.690667 27.477333 127.765333 127.765333 0 0 0-10.986667-3.84 202.624 202.624 0 0 0-30.421333-6.997333c-32.32-4.864-60.373333-1.365333-84.181333 10.453333zM604.266667 503.893333a14.933333 14.933333 0 0 1-13.312-26.730666c29.418667-14.634667 63.402667-19.050667 101.930666-13.269334 18.88 2.837333 35.114667 7.146667 48.661334 12.906667a14.933333 14.933333 0 1 1-11.690667 27.477333 127.765333 127.765333 0 0 0-10.986667-3.84 202.624 202.624 0 0 0-30.421333-6.997333c-32.32-4.864-60.373333-1.365333-84.181333 10.453333zM604.266667 589.226667a14.933333 14.933333 0 0 1-13.312-26.730667c29.418667-14.634667 63.402667-19.050667 101.930666-13.269333 18.88 2.837333 35.114667 7.146667 48.661334 12.906666a14.933333 14.933333 0 1 1-11.690667 27.477334 127.765333 127.765333 0 0 0-10.986667-3.84 202.624 202.624 0 0 0-30.421333-6.997334c-32.32-4.864-60.373333-1.365333-84.181333 10.453334z" fill="#2E2E38" p-id="1013"></path><path d="M526.933333 320v341.333333a14.933333 14.933333 0 1 1-29.866666 0V320a14.933333 14.933333 0 1 1 29.866666 0z" fill="#2E2E38" p-id="1014"></path><path d="M491.712 727.082667c10.837333 2.922667 19.392 5.589333 25.642667 8a14.933333 14.933333 0 1 1-11.477334 27.584 252.48 252.48 0 0 0-21.909333-6.741334 455.04 455.04 0 0 0-63.104-12.096c-70.357333-8.576-137.685333-2.218667-201.984 19.072a14.933333 14.933333 0 0 1-10.261333-28.053333c68.778667-22.933333 140.736-29.824 215.850666-20.650667 23.466667 2.858667 45.888 7.146667 67.242667 12.885334z" fill="#2E2E38" p-id="1015"></path><path d="M790.378667 727.082667c10.837333 2.922667 19.392 5.589333 25.642666 8a14.933333 14.933333 0 1 1-11.477333 27.584 252.48 252.48 0 0 0-21.930667-6.741334 455.061333 455.061333 0 0 0-63.082666-12.096c-70.357333-8.576-137.685333-2.218667-201.984 19.072a14.933333 14.933333 0 0 1-10.261334-28.053333c68.778667-22.933333 140.736-29.824 215.850667-20.650667 23.466667 2.858667 45.888 7.146667 67.242667 12.885334z" fill="#2E2E38" p-id="1016"></path></svg>